<svg xmlns="http://www.w3.org/2000/svg" viewBox="0 0 400 300" width="406" height="306" class="illustration styles_illustrationTablet__1DWOa"><g id="_451_easter_eggs_flatline" data-name="#451_easter_eggs_flatline"><path d="M140.5,87.25a.54.54,0,0,1-.21,0l-14.1-6.54a.5.5,0,1,1,.42-.9l14.11,6.53A.5.5,0,0,1,141,87,.52.52,0,0,1,140.5,87.25Z" fill="#d1d3d4"></path><path d="M149.82,71.43a.5.5,0,0,1-.37-.17L137.93,58.57a.49.49,0,0,1,0-.7.5.5,0,0,1,.71,0l11.52,12.69a.51.51,0,0,1-.37.84Z" fill="#d1d3d4"></path><path d="M164.41,58.77a.51.51,0,0,1-.49-.4l-2.25-10.7a.5.5,0,0,1,.39-.59.49.49,0,0,1,.59.38l2.25,10.7a.52.52,0,0,1-.39.6Z" fill="#d1d3d4"></path><ellipse cx="182.03" cy="259.61" rx="58.07" ry="5.59" fill="#e6e7e8"></ellipse><path d="M266,155.54a.58.58,0,0,0-.15-.34c-.86-2.06-11.11-15.28-11.39-15.77-.18-.3-19.74,9.48-19.74,9.48l-5-19.31-17.94,15.58-6-16.88L189.9,141l-14.61-23.42-23.06,16.19-11.4-21.09L117.7,127.07l0,0s9.06,89.5,48,97.8c15.7,3.33,65.47,9.12,83.88-6.51S264.3,158.17,265,157.27c0,0,0,0,0,0,.7-.78,1.05-1.35,1-1.69Z" fill="#231f20"></path><path d="M205.81,229.21a219.73,219.73,0,0,1-40.22-3.83c-11.24-2.4-27.14-13.42-39-52.36a273.51,273.51,0,0,1-9.42-45.88.5.5,0,0,1,.29-.51l23.1-14.42a.49.49,0,0,1,.39-.06.5.5,0,0,1,.32.25L152.4,133,175,117.12a.53.53,0,0,1,.39-.08.5.5,0,0,1,.32.23L190,140.21l15.52-12.3a.44.44,0,0,1,.44-.09.5.5,0,0,1,.34.31l5.72,16.19,17.39-15.1a.52.52,0,0,1,.48-.1.5.5,0,0,1,.33.35l4.83,18.72c19.42-9.71,19.53-9.53,19.84-9l1.84,2.46c4.26,5.63,8.85,11.75,9.56,13.31a1.11,1.11,0,0,1,.21.51.92.92,0,0,1,0,.16c0,.41-.32,1-1.11,1.91-.05.38-.05,1.73,0,3.29.06,11,.23,44.59-15.49,57.94C240.39,226.84,222.75,229.21,205.81,229.21ZM118.2,127.35c.64,5.84,10.58,89.17,47.6,97.05,12.83,2.72,64.58,9.62,83.46-6.41,15.36-13,15.19-46.25,15.13-57.17,0-3.27,0-3.59.2-3.85l.07-.08h0a3.37,3.37,0,0,0,.87-1.27v0a.28.28,0,0,0,0-.08l-.06-.1c-.62-1.47-6.58-9.36-9.45-13.16-.92-1.21-1.43-1.88-1.69-2.24-1.9.74-12.35,5.88-19.31,9.36a.5.5,0,0,1-.43,0,.49.49,0,0,1-.28-.33l-4.77-18.53-17.34,15a.49.49,0,0,1-.45.11.48.48,0,0,1-.34-.32l-5.74-16.22-15.41,12.23a.5.5,0,0,1-.73-.13l-14.34-23-22.62,15.88a.48.48,0,0,1-.4.08.49.49,0,0,1-.33-.25l-11.15-20.62Zm147.33,28.21Z" fill="#231f20"></path><ellipse cx="190.23" cy="159.06" rx="49.85" ry="45.09" transform="translate(-26.77 39.07) rotate(-10.96)" fill="#fff"></ellipse><path d="M188.27,204.85a51.76,51.76,0,0,1-26.84-7.36c-11-6.64-18.31-16.89-20.62-28.86s.65-24.21,8.36-34.47a52.76,52.76,0,0,1,32.4-19.86c27.25-5.28,53.31,10.51,58.09,35.19h0c4.78,24.68-13.5,49-40.76,54.33A55.72,55.72,0,0,1,188.27,204.85Zm3.84-90.57a54,54,0,0,0-10.35,1A51.76,51.76,0,0,0,150,134.75c-7.54,10-10.45,22-8.19,33.69s9.43,21.7,20.17,28.2a51.76,51.76,0,0,0,36.76,6.2c26.72-5.17,44.65-29,40-53.16h0C234.62,128.68,214.78,114.28,192.11,114.28Z" fill="#231f20"></path><path d="M169.7,129.87s-50.8-35.14-53.35-32.24-18,42.55,28.35,58.49" fill="#fff"></path><path d="M144.7,156.62a.51.51,0,0,1-.17,0c-17.54-6-28.27-16-31.9-29.68C108.8,112.49,114.51,99,116,97.3c.61-.69,1.88-2.13,28.28,14.94,12.88,8.33,25.61,17.13,25.74,17.22a.5.5,0,0,1-.57.82C145.54,113.76,119,96.83,116.7,98c-1.38,1.57-6.84,14.62-3.11,28.67,3.54,13.33,14.06,23.09,31.27,29a.5.5,0,0,1,.31.63A.5.5,0,0,1,144.7,156.62Z" fill="#231f20"></path><path d="M204.4,117.4s32.45-44.59,34.45-42,33.17,53.26-7.06,64.17" fill="#fff"></path><path d="M231.79,140.07a.49.49,0,0,1-.48-.36.5.5,0,0,1,.35-.61c9.78-2.65,16.06-7.93,18.67-15.67,6-17.78-9.16-44.06-11.8-47.62-2.81.61-22.1,25.91-33.73,41.89a.5.5,0,0,1-.81-.59c5.14-7.06,30.95-42.26,34.61-42.31a.82.82,0,0,1,.65.3,94.65,94.65,0,0,1,9,17.82c3.25,8.53,6.43,20.79,3,30.83-2.73,8.08-9.24,13.56-19.36,16.31Z" fill="#231f20"></path><circle cx="181.02" cy="111.5" r="28.42" fill="#fff"></circle><path d="M181,140.42A28.92,28.92,0,1,1,209.42,106h0A28.94,28.94,0,0,1,181,140.42Zm.07-56.86a27.94,27.94,0,1,0,27.36,22.63h0a28,28,0,0,0-27.36-22.63Z" fill="#231f20"></path><path d="M174.66,115.27c-.16.65,5.76,8.86,9.69,8.1,3.33-.65,5.31-10.8,5-11.42Z" fill="#fff"></path><path d="M183.82,123.92c-2.17,0-4.55-2-6.22-3.74-1.25-1.31-3.62-4.22-3.43-5a.5.5,0,0,1,.38-.37l14.67-3.32a.49.49,0,0,1,.55.25c.37.7-.66,5.69-2.14,8.78-1,2-2,3.13-3.18,3.36A3.36,3.36,0,0,1,183.82,123.92Zm-8.51-8.29c1,1.79,5.85,7.85,8.95,7.25,2.54-.49,4.45-8.14,4.61-10.31Z" fill="#231f20"></path><path d="M189.33,112s-9.63-4.88-14.67,3.32c0,0,4.12,4,8.54,3.1C186.53,117.72,189.33,112,189.33,112Z" fill="#fff"></path><path d="M181.9,119c-4,0-7.43-3.21-7.59-3.36a.5.5,0,0,1-.08-.62c5.23-8.49,15.23-3.55,15.33-3.5a.5.5,0,0,1,.22.66c-.12.25-3,6-6.49,6.69A7.34,7.34,0,0,1,181.9,119Zm-6.59-3.81c1,.85,4.35,3.37,7.79,2.7,2.53-.49,4.82-4.36,5.55-5.69C186.75,111.37,179.53,108.82,175.31,115.18Z" fill="#231f20"></path><ellipse cx="170.86" cy="109.65" rx="1.42" ry="2.38" transform="translate(-17.73 34.48) rotate(-10.96)" fill="#231f20"></ellipse><ellipse cx="188.23" cy="106.28" rx="1.42" ry="2.38" transform="translate(-16.77 37.73) rotate(-10.96)" fill="#231f20"></ellipse><path d="M186.87,86.32a39.31,39.31,0,0,0-19.5-7.48c-.26,1.12.73,2.1,1.63,2.82L174.37,86a17.21,17.21,0,0,0-17.09,1.08c-.39.27-.83.69-.67,1.14a1.16,1.16,0,0,0,.41.47,23.78,23.78,0,0,0,12.43,4.77" fill="#fff"></path><path d="M169.45,94h0a24.44,24.44,0,0,1-12.69-4.87,1.61,1.61,0,0,1-.58-.7c-.2-.58.11-1.21.86-1.72a17.87,17.87,0,0,1,14.59-2.28L168.68,82c-.59-.47-2.15-1.74-1.8-3.31a.51.51,0,0,1,.53-.39,39.67,39.67,0,0,1,19.76,7.58.5.5,0,0,1,.1.7.48.48,0,0,1-.69.1,38.56,38.56,0,0,0-18.74-7.33,3.8,3.8,0,0,0,1.47,1.88l5.38,4.34a.5.5,0,0,1-.54.84,16.79,16.79,0,0,0-16.59,1c-.34.23-.51.47-.48.57s.17.17.25.24A23.3,23.3,0,0,0,169.49,93a.5.5,0,0,1,0,1Z" fill="#231f20"></path><path d="M262.32,200.22c-3.67,14.39-9.46,26.22-16.85,35.58a72.63,72.63,0,0,1-6.8,7.54,69.73,69.73,0,0,1-14.95,11h0a71,71,0,0,1-15.1,6.12c-14.17,4-29.84,3.81-45.67-.24-21.41-5.45-39.14-17-50.07-33.53a69.36,69.36,0,0,1-8-16.37,74.13,74.13,0,0,1-3.25-14.46A81.75,81.75,0,0,1,101,184.7,103.31,103.31,0,0,1,104.41,160a138.06,138.06,0,0,1,13.25-32.88l9.06,37.07,4.57-3.72,5.77-4.7,8.44-6.86,1.67,5.4,2.4,7.78,4.74,15.36L169,165.84l6.55-5.18,4,6.88,4.57,7.94,6.37,11,20.79-20.56,6.64,8.84,12.74,16.91,1.93-4.72,9.73-23.74,3.61,5.37,4.68,6.94,6.11,9.06,7.11-22,2.26-7c.17,2.35.29,4.71.34,7.06A138.58,138.58,0,0,1,262.32,200.22Z" fill="#68e1fd"></path><path d="M117.66,127.09l9.06,37.07,4.57-3.72,5.77-4.7,8.44-6.86,1.67,5.4,2.4,7.78,4.74,15.36L169,165.84l6.55-5.18,4,6.88,4.57,7.94,6.37,11,20.79-20.56,6.64,8.84,12.74,16.91,1.93-4.72,9.73-23.74,3.61,5.37,4.68,6.94,6.11,9.06,7.11-22,2.26-7c.17,2.35.29,4.71.34,7.06a138.58,138.58,0,0,1-4.06,37.59c-3.67,14.39-9.46,26.22-16.85,35.58a72.63,72.63,0,0,1-6.8,7.54,69.73,69.73,0,0,1-14.95,11h0a71,71,0,0,1-15.1,6.12A80,80,0,0,1,187,263.38a96.83,96.83,0,0,1-24-3.13c-21.41-5.45-39.14-17-50.07-33.53a69.36,69.36,0,0,1-8-16.37,74.13,74.13,0,0,1-3.25-14.46A81.75,81.75,0,0,1,101,184.7,103.31,103.31,0,0,1,104.41,160a138.06,138.06,0,0,1,13.25-32.88m0-1a1,1,0,0,0-.87.51,138.52,138.52,0,0,0-13.35,33.12,104.76,104.76,0,0,0-3.4,25,83.91,83.91,0,0,0,.63,11.31,76.46,76.46,0,0,0,3.3,14.66,70.29,70.29,0,0,0,8.07,16.6c10.92,16.55,28.43,28.3,50.65,34A98.07,98.07,0,0,0,187,264.38a81.27,81.27,0,0,0,21.91-2.93,71.59,71.59,0,0,0,15.2-6.15.94.94,0,0,0,.22-.12,70.74,70.74,0,0,0,15.06-11.12,73.29,73.29,0,0,0,6.9-7.64c7.71-9.77,13.44-21.87,17-35.95a138.78,138.78,0,0,0,4.09-37.87c-.05-2.22-.16-4.55-.34-7.1a1,1,0,0,0-.88-.93H266a1,1,0,0,0-1,.69l-2.26,7-6.48,20.07-5-7.36L246.71,168l-3.61-5.37a1,1,0,0,0-.83-.44h-.11a1,1,0,0,0-.82.62l-9.72,23.75-1.27,3.09-11.68-15.51L212,165.34a1,1,0,0,0-.73-.4h-.07a1,1,0,0,0-.71.29l-19.86,19.65-5.72-9.9L180.36,167l-4-6.88a1,1,0,0,0-.68-.48l-.19,0a1,1,0,0,0-.62.22l-6.55,5.17-13.52,10.68-4.3-14L148.12,154l-1.66-5.39a1,1,0,0,0-.67-.67,1.35,1.35,0,0,0-.29,0,1,1,0,0,0-.63.23L136.43,155l-5.77,4.71-3.35,2.72-8.67-35.54a1,1,0,0,0-.84-.75Z" fill="#231f20"></path><path d="M149.57,162.06a16.31,16.31,0,0,1-6.8,2.7,12,12,0,0,1-11.48-4.32l5.77-4.7a4,4,0,0,0,1.74,1.45c3.13,1.34,6.12-.5,8.37-2.91Z" fill="#fff"></path><path d="M184.07,175.48c-6.61.48-13-2.69-15.1-9.64l6.55-5.18a13.16,13.16,0,0,0,.69,3.33,5.82,5.82,0,0,0,3.29,3.55Z" fill="#fff"></path><path d="M245.88,168.6l4.68,6.94c-.36.7-.7,1.39-1.06,2.06-4.13,7.91-10.76,18.23-21.05,17.58-10-.64-10.66-12.26-10.58-20.4l12.74,16.91,1.93-4.72a25.64,25.64,0,0,0,7.09-7.12C242,176.26,243.75,172.33,245.88,168.6Z" fill="#fff"></path><path d="M266.38,162.63a8.71,8.71,0,0,0-2.6,0l2.26-7C266.21,157.92,266.33,160.28,266.38,162.63Z" fill="#fff"></path><path d="M101,184.71a83.31,83.31,0,0,0,.63,11.18,158,158,0,0,0,30.21,22.55c16.2,9.3,33.93,15,52.19,18.7,17.93,3.61,36.28,6.08,54.59,6.21a73.64,73.64,0,0,0,6.81-7.54c-5.64.16-11.28.06-16.91-.24a286.93,286.93,0,0,1-54.44-8.32,151.62,151.62,0,0,1-45.83-19.76A149.34,149.34,0,0,1,101,184.71Z" fill="#fff"></path><path d="M104.92,210.35a69.74,69.74,0,0,0,8,16.37A158.2,158.2,0,0,0,129,237.35c16.19,9.3,33.93,15,52.19,18.71,9.05,1.82,18.2,3.35,27.41,4.43a70.72,70.72,0,0,0,15.1-6.12,287.24,287.24,0,0,1-52.47-8.2,151.9,151.9,0,0,1-45.83-19.77A147.83,147.83,0,0,1,104.92,210.35Z" fill="#fff"></path><circle cx="193.75" cy="196.33" r="8.52" fill="#fff"></circle><circle cx="216.23" cy="219.66" r="8.52" fill="#fff"></circle><circle cx="161.59" cy="210.47" r="8.52" fill="#fff"></circle><circle cx="145.41" cy="184" r="8.52" fill="#fff"></circle><circle cx="117.47" cy="176.88" r="8.52" fill="#fff"></circle><path d="M282.73,150c-.08.18-.18.34-.27.52l-.23-.85L277,130.4,256.42,142,255,115.65l-6,1.59-7.31,1.93-16.31,4.3.09-1.61.48-8.16,1.21-21.17-16,1.94-9.4,1.13-3.86.46,5.23-12.14,2.94-6.84,3.35-7.78L181,67.16,179.13,67c-.44-1.07,1.71-24.61,1.71-24.61,37.25-17.18,80.55-18.54,103.08,5.7C306.18,72.06,302,114.41,282.73,150Z" fill="#68e1fd"></path><path d="M235,29.68c19.46,0,37.07,5.67,48.93,18.43,22.26,24,18.1,66.3-1.19,101.92-.08.18-.18.34-.27.52l-.23-.85L277,130.4,256.42,142,255,115.65l-6,1.59-7.31,1.93-16.31,4.3.09-1.61.48-8.16,1.21-21.17-16,1.94-9.4,1.13-3.86.46,5.23-12.14,2.94-6.84,3.35-7.78L181,67.16,179.13,67c-.44-1.07,1.71-24.61,1.71-24.61,17.64-8.14,36.64-12.73,54.15-12.73m0-1v0h0c-17.27,0-36.65,4.56-54.57,12.82a1,1,0,0,0-.58.82c-1,10.85-2.07,24-1.64,25.07a1,1,0,0,0,.85.62l1.84.14,27.05,2-2.8,6.5-2.94,6.83L197,95.67a1,1,0,0,0,.91,1.39H198l3.85-.47,9.4-1.13,14.79-1.79-1.14,20-.48,8.16-.09,1.61a1,1,0,0,0,1,1.06.78.78,0,0,0,.26,0l16.3-4.3,7.32-1.92,4.83-1.28,1.36,25.12a1,1,0,0,0,.52.82,1,1,0,0,0,.48.12,1,1,0,0,0,.49-.13l19.44-11L281.26,150l.23.84a1,1,0,0,0,.88.73h.09a1,1,0,0,0,.9-.57l.12-.22.15-.28c9.83-18.16,15.61-38,16.27-55.75.72-19.43-4.55-35.79-15.25-47.3C273.26,35.17,256.08,28.68,235,28.68Z" fill="#231f20"></path><path d="M181,67.16,179.13,67c-.44-1.07,1.71-24.61,1.71-24.61A32.1,32.1,0,0,1,181,67.16Z" fill="#fff"></path><path d="M211.15,94.47l-9.4,1.13c.48-.69,1-1.38,1.41-2.09,1.21-1.91,3.73-9,0-9.59l2.94-6.84a10.87,10.87,0,0,1,5.8,6.25A14.28,14.28,0,0,1,211.15,94.47Z" fill="#fff"></path><path d="M249,117.24l-7.31,1.93a4,4,0,0,0-.76-2.73c-.85-.78-2.34-.09-3.36.24a128.31,128.31,0,0,0-12.1,5.18l.48-8.16c4.19-2.13,8.36-4.39,12.8-5,5-.66,8.95,2.53,10,7.35C248.84,116.46,248.92,116.85,249,117.24Z" fill="#fff"></path><path d="M282.73,150c-.08.18-.18.34-.27.52l-.23-.85Z" fill="#fff"></path><circle cx="237.67" cy="84.15" r="8.52" fill="#fff"></circle><circle cx="237.79" cy="42.07" r="8.52" fill="#fff"></circle><circle cx="271.75" cy="78.62" r="8.52" fill="#fff"></circle><circle cx="274.44" cy="106.56" r="8.52" fill="#fff"></circle><circle cx="210.94" cy="55.38" r="8.52" fill="#fff"></circle></g></svg>